<svg width="32" height="32" viewBox="0 0 32 32" fill="none" xmlns="http://www.w3.org/2000/svg">
<g clip-path="url(#clip0_21093_27)">
<path d="M31.625 15.7936C31.6187 18.4999 31.0312 20.8874 29.8437 23.1061C28.725 25.1999 27.1812 26.9436 25.2375 28.3186C23.5312 29.5249 21.6625 30.3499 19.6187 30.7749C17.3562 31.2436 15.0937 31.1936 12.85 30.6561C11.6625 30.3686 10.525 29.9311 9.45624 29.3499C9.27499 29.2499 9.11874 29.2436 8.92499 29.3061C6.56874 30.0624 4.21249 30.8124 1.85624 31.5624C1.58748 31.6499 1.32498 31.7311 1.05623 31.8311C0.868735 31.8999 0.856235 31.8311 0.906235 31.6749C1.18123 30.8686 1.44998 30.0624 1.72498 29.2499C2.31249 27.4936 2.89999 25.7374 3.49999 23.9874C3.58124 23.7561 3.46249 23.6061 3.36874 23.4436C2.63124 22.1624 2.10624 20.7999 1.78123 19.3624C1.07498 16.2624 1.32498 13.2249 2.51249 10.2811C3.19999 8.58112 4.18124 7.05612 5.43749 5.70612C7.03749 3.98112 8.93124 2.71237 11.1187 1.86237C13.1625 1.06862 15.275 0.762372 17.45 0.893622C20.4312 1.07487 23.1437 2.06237 25.525 3.86237C28.6062 6.18737 30.5437 9.24362 31.3187 13.0374C31.525 14.0061 31.6 14.9874 31.625 15.7936ZM16.4062 3.42487C15.825 3.39987 15.1437 3.46862 14.4625 3.56862C14.1937 3.60612 13.9312 3.66237 13.6687 3.73112C9.60624 4.76237 6.68749 7.18737 4.96874 11.0061C3.97499 13.2124 3.70624 15.5436 4.08124 17.9311C4.37499 19.8186 5.07499 21.5561 6.16874 23.1249C6.28749 23.2999 6.30624 23.4499 6.23749 23.6436C5.77499 24.9999 5.32499 26.3624 4.86874 27.7249C4.84374 27.7999 4.76874 27.8874 4.83749 27.9561C4.90624 28.0311 4.99374 27.9499 5.06874 27.9249C6.43749 27.4874 7.80624 27.0561 9.16249 26.5999C9.47499 26.4936 9.69999 26.5436 9.96874 26.7061C13.0375 28.5499 16.3187 29.0374 19.775 28.1186C22.4 27.4249 24.5625 25.9936 26.275 23.8811C27.9312 21.8374 28.8562 19.4999 29.0437 16.8874C29.1875 14.8811 28.875 12.9311 28.075 11.0686C27.0687 8.72487 25.5 6.84987 23.3812 5.45612C21.3062 4.09362 19.0125 3.39362 16.4062 3.42487Z" fill="#BC0000"/>
<path d="M8.9436 12.3499C8.9686 10.9437 9.5186 9.78744 10.5936 8.88744C10.8999 8.63119 11.2686 8.52494 11.6749 8.59369C11.8499 8.61869 12.0311 8.64369 12.1999 8.62494C12.6249 8.59369 12.8686 8.83119 12.9999 9.18119C13.3999 10.2312 13.7874 11.2874 14.1811 12.3374C14.2561 12.5374 14.2374 12.7187 14.1436 12.9062C13.8999 13.4124 13.5124 13.8062 13.1249 14.1999C12.7874 14.5437 12.7686 14.6562 12.9999 15.0749C14.1186 17.0999 15.6624 18.6749 17.7999 19.6312C17.9061 19.6749 17.9999 19.7499 18.0999 19.7937C18.3686 19.9249 18.6124 19.9124 18.8374 19.6812C19.2749 19.2374 19.6811 18.7624 20.0749 18.2749C20.3811 17.8937 20.5249 17.8374 20.9561 18.0312C22.0061 18.5187 23.0061 19.0874 24.0249 19.6374C24.3624 19.8187 24.3999 20.0687 24.3499 20.5249C24.1436 22.3812 22.7249 23.2249 21.1061 23.4937C20.5624 23.5812 20.0499 23.5312 19.5374 23.3687C18.0374 22.8937 16.5624 22.3437 15.2374 21.4812C13.9999 20.6749 12.9374 19.6687 12.0061 18.5249C11.0999 17.4062 10.2936 16.2249 9.62485 14.9437C9.24985 14.2124 8.9436 13.0749 8.9436 12.3499Z" fill="#BC0000"/>
</g>
<defs>
<clipPath id="clip0_21093_27">
<rect width="32" height="32" fill="white"/>
</clipPath>
</defs>
</svg>
