<?xml version="1.0" encoding="utf-8"?>
<!-- Generator: Adobe Illustrator 26.0.3, SVG Export Plug-In . SVG Version: 6.00 Build 0)  -->
<svg version="1.1" id="Слой_1" xmlns="http://www.w3.org/2000/svg" xmlns:xlink="http://www.w3.org/1999/xlink" x="0px" y="0px"
	 viewBox="0 0 186 187" style="enable-background:new 0 0 186 187;" xml:space="preserve">
<style type="text/css">
	.st0{fill:#EF7E3A;}
</style>
<path class="st0" d="M93,0.17C41.45,0.17-0.33,41.95-0.33,93.5c0,51.55,41.79,93.33,93.33,93.33s93.33-41.79,93.33-93.33
	C186.33,41.95,144.55,0.17,93,0.17z M93,181.44c-48.57,0-87.94-39.37-87.94-87.94S44.43,5.56,93,5.56s87.94,39.37,87.94,87.94
	S141.57,181.44,93,181.44z"/>
<path class="st0" d="M15.46,129.99c13.7,29.07,43.27,49.19,77.54,49.19s63.84-20.12,77.54-49.19H15.46z M116.6,145.04l-8.77,13.48
	c-0.41,0.59-1.26,0.65-1.74,0.11l-5.04-5.63c-0.7-0.78-1.95-0.68-2.51,0.2l-3.86,5.97c-0.54,0.76-1.66,0.76-2.2,0l-4.16-5.97
	c-0.67-0.97-2.11-0.95-2.77,0.03l-4.17,6.3c-0.42,0.61-1.31,0.64-1.77,0.06l-9.05-11.31c-0.74-0.92-0.55-2.28,0.42-2.96l2.38-1.67
	c0.89-0.62,2.1-0.44,2.77,0.41l2.94,4.58c0.64,1,2.08,1.06,2.8,0.11l4.3-5.65c0.52-0.68,1.53-0.68,2.06-0.01l3.51,5.32
	c0.6,0.91,1.93,0.9,2.52,0l3.5-5.33c0.47-0.72,1.48-0.83,2.1-0.24l5.44,5.95c0.56,0.61,1.55,0.55,2.02-0.13l4.14-6.59
	c0.37-0.58,1.12-0.78,1.73-0.46l2.94,1.58C116.8,143.54,117.02,144.4,116.6,145.04z"/>
<path class="st0" d="M93,7.82c-33.99,0-63.35,19.79-77.2,48.47h154.4C156.35,27.61,126.99,7.82,93,7.82z M90.34,19.01l2.94,2.27
	l3.76-0.67l2.94,1.42l-3.05,0.89l-1.03-0.89l-4.61,1.03l-0.43-0.32l0.71-0.89l-2.34-1.81l-1.49-1.03H90.34z M89.85,26.79l-0.86,0.65
	l-0.35-0.57L89.85,26.79z M88.74,25.34l-0.58,0.81h-0.63L88.74,25.34z M86.59,24.83v1.13l-1.02-0.05L86.59,24.83z M84.18,24.79
	l0.4,1.02l-0.46,0.35l-0.34-0.35L84.18,24.79z M87.06,26.49l1.8,1.88l-2,1.68l-4.24-2.15l0.52-1.05L87.06,26.49z M82.97,26
	l-0.07,0.48l-0.52-0.17l-0.3-0.98L82.97,26z M105.33,53.03l-3.76-0.57l-4-1.98l-3.9-1.35l-8.79,0.07l-2.76-1.38l-4.61-0.32
	l-3.65,0.28l-3.51-0.46l-3.65,0.74l-2.44-0.74l-2.13-1.84l-1.95-2.02l-1.24-1.84l1.77,0.81l2.37,0.21l0.39,1.7l2.13,0.18l0.25,2.2
	l3.65-1.88l-0.53,1.13l5.6-1.63l-0.6,2.37l2.52-2.37l0.71,1.84l2.37-2.23l2.55,2.52l0.28-1.52l3.05,2.16l2.02-2.06l-0.21,1.7
	l4.57-1.98l-1.77,2.34l4.32-1.38l-2.16,1.98l6.09-0.89l-1.2,2.44l3.12-1.74l-0.57,2.48l6.2-0.18l-1.45,2.3h4.11L105.33,53.03z
	 M129.64,43.53l-9.53,2.76l-3.72,2.44l-8.86,2.02l-1.56-2.3l-3.01-0.18l-0.96-2.3l-2.83,0.14l-1.74-1.77l-5.21,0.25l-1.81-1.13
	l-5.81,1.13l-3.61-1.91l-2.91,1.24l-7.02,0.21l-3.86,0.64l-5.88-3.9l-2.37-0.14l2.87-1.17l5,2.13l3.9,0.32l4.64-1.77l3.61-0.67
	l4.96,1.22l4.11,1.22l5.49-0.92l8.19-3.15H106l8.72,3.47l5.35,0.28l7.72-0.39l5.24-1.67L129.64,43.53z M130.74,38.46l-3.26,1.06
	h-12.19l-3.65-1.81l-4.07-0.25l-3.3-1.31l-12.12,4.43l-6.07,0.32l-3.46-2.66l-15.24,2.83L62,38.64l-5.14,2.44l-2.48-2.44l5.32-0.57
	l4.11-3.9l1.52-2.27l1.56-4.79l5.49-5.84l3.54,0.99l5.21,5.99l4.22,2.05l-2.98,4.04l-3.9,2.66l3.44-0.81l7.33-7.05l3.44-2.03
	l1.19,1.46l2.78,0.81l2.44,2.48l-1.38,2.02l-7.87,3.12l6.66-0.64l8.29-9.89l3.97-3.05l5.49,0.25l6.02,5.49l6.24,3.72l9.92,5.74
	L130.74,38.46z"/>
<g>
	<path class="st0" d="M45.03,84.61c-1.24,0-2.24,0.44-3,1.31c-0.76,0.87-1.14,2.19-1.14,3.95c0,1.73,0.39,3.05,1.17,3.94
		c0.78,0.9,1.77,1.34,2.97,1.34c1.2,0,2.18-0.44,2.95-1.33c0.77-0.89,1.15-2.22,1.15-4c0-1.75-0.37-3.06-1.12-3.93
		C47.27,85.04,46.27,84.61,45.03,84.61z"/>
	<path class="st0" d="M124.7,103.58c-0.44,0-0.79,0.16-1.06,0.47c-0.27,0.31-0.4,0.79-0.4,1.42c0,0.62,0.14,1.09,0.41,1.41
		c0.28,0.32,0.63,0.48,1.05,0.48s0.77-0.16,1.05-0.48c0.27-0.32,0.41-0.8,0.41-1.43c0-0.63-0.13-1.1-0.4-1.41
		C125.49,103.74,125.14,103.58,124.7,103.58z"/>
	<polygon class="st0" points="72.76,85.8 70.75,91.49 74.81,91.49 	"/>
	<path class="st0" d="M90,105.84h-1.08v1.45h1.04c0.34,0,0.57-0.02,0.7-0.05c0.13-0.03,0.25-0.11,0.35-0.23s0.15-0.27,0.15-0.44
		c0-0.25-0.09-0.44-0.26-0.55C90.71,105.9,90.42,105.84,90,105.84z"/>
	<path class="st0" d="M133.41,107.29h2v-3.65h-1.57C133.85,105.31,133.7,106.53,133.41,107.29z"/>
	<polygon class="st0" points="70.72,106.04 72.16,106.04 71.44,104.01 	"/>
	<polygon class="st0" points="79.72,106.04 81.16,106.04 80.43,104.01 	"/>
	<path class="st0" d="M113.06,103.69c-0.13-0.02-0.38-0.04-0.77-0.04h-0.51v1.56h0.58c0.42,0,0.7-0.03,0.84-0.09
		c0.14-0.06,0.25-0.15,0.33-0.27c0.08-0.12,0.12-0.26,0.12-0.43c0-0.2-0.06-0.36-0.17-0.49
		C113.37,103.81,113.23,103.73,113.06,103.69z"/>
	<path class="st0" d="M107.6,88.52c0.36-0.13,0.64-0.34,0.84-0.65c0.2-0.31,0.3-0.69,0.3-1.15c0-0.52-0.13-0.93-0.4-1.25
		c-0.27-0.32-0.65-0.52-1.13-0.6c-0.24-0.03-0.98-0.05-2.19-0.05h-2.35v3.89h2.22C106.34,88.71,107.24,88.64,107.6,88.52z"/>
	<path class="st0" d="M107.32,103.58c-0.44,0-0.79,0.16-1.06,0.47c-0.27,0.31-0.4,0.79-0.4,1.42c0,0.62,0.14,1.09,0.41,1.41
		c0.28,0.32,0.63,0.48,1.05,0.48s0.77-0.16,1.05-0.48c0.27-0.32,0.41-0.8,0.41-1.43c0-0.63-0.13-1.1-0.4-1.41
		C108.11,103.74,107.76,103.58,107.32,103.58z"/>
	<path class="st0" d="M139.84,105.84h-1.08v1.45h1.04c0.33,0,0.56-0.02,0.69-0.05s0.25-0.11,0.35-0.23s0.15-0.27,0.15-0.44
		c0-0.24-0.08-0.43-0.25-0.55C140.57,105.9,140.27,105.84,139.84,105.84z"/>
	<polygon class="st0" points="116.34,106.04 117.78,106.04 117.05,104.01 	"/>
	<polygon class="st0" points="151.15,106.04 152.59,106.04 151.86,104.01 	"/>
	<polygon class="st0" points="120.52,85.8 118.5,91.49 122.57,91.49 	"/>
	<polygon class="st0" points="33.17,106.04 34.61,106.04 33.89,104.01 	"/>
	<path class="st0" d="M160.15,64.18H26.4c-5.65,0-10.23,4.58-10.23,10.23v38.93c0,5.65,4.58,10.23,10.23,10.23h133.75
		c5.65,0,10.23-4.58,10.23-10.23V74.41C170.38,68.76,165.8,64.18,160.15,64.18z M142.03,82.23h11.04v2.59h-8.03v3.4h7.48v2.58h-7.48
		v4.17h8.32v2.58h-11.32V82.23z M129.89,82.23l3.77,11.33l3.65-11.33h3.19l-5.33,15.31h-3.21l-5.32-15.31H129.89z M118.96,82.23
		h3.18l5.96,15.31h-3.27l-1.3-3.48h-5.95l-1.23,3.48h-3.19L118.96,82.23z M25.03,108.21l-1.17-1.9l-1.17,1.9h-1.28l1.8-2.86
		l-1.63-2.62h1.25l1.06,1.76l1.04-1.76h1.23l-1.64,2.66l1.8,2.82H25.03z M26.21,87.56v9.99h-2.79V82.23h2.92l6.09,10.23V82.23h2.79
		v15.31h-3.02L26.21,87.56z M30.66,107.92c-0.19,0.14-0.43,0.23-0.71,0.26c-0.18,0.02-0.61,0.03-1.29,0.04h-1.8v-5.49h2.11
		c0.42,0,0.73,0.02,0.93,0.05c0.21,0.04,0.39,0.11,0.55,0.23c0.16,0.11,0.3,0.27,0.4,0.46s0.16,0.4,0.16,0.64
		c0,0.26-0.07,0.49-0.2,0.71c-0.13,0.21-0.31,0.38-0.54,0.48c0.32,0.1,0.57,0.26,0.74,0.5c0.17,0.23,0.26,0.51,0.26,0.83
		c0,0.25-0.06,0.49-0.17,0.73C31,107.59,30.85,107.78,30.66,107.92z M35.42,108.21l-0.46-1.25h-2.11l-0.44,1.25h-1.13l2.06-5.49
		h1.13l2.11,5.49H35.42z M40.59,103.66h-1.56v4.56h-1.07v-4.56H36.4v-0.93h4.19V103.66z M45.49,108.21h-1v-3.58l-2.13,3.58h-1.07
		v-5.49h1v3.65l2.14-3.65h1.06V108.21z M50.39,103.66h-1.56v4.56h-1.07v-4.56H46.2v-0.93h4.19V103.66z M50.28,95.71
		c-1.31,1.4-3.05,2.09-5.24,2.09c-2.21,0-3.97-0.69-5.28-2.08c-1.31-1.39-1.96-3.3-1.96-5.74c0-1.56,0.23-2.87,0.68-3.93
		c0.34-0.78,0.8-1.48,1.39-2.1c0.59-0.62,1.23-1.08,1.92-1.38c0.93-0.4,2-0.61,3.21-0.61c2.19,0,3.95,0.7,5.27,2.1
		s1.98,3.35,1.98,5.84C52.24,92.38,51.59,94.32,50.28,95.71z M58.21,108.21h-0.99v-4.32l-1.05,4.32h-1.03l-1.04-4.32v4.32h-0.99
		v-5.49h1.59l0.96,3.74l0.95-3.74h1.6V108.21z M53.07,82.23h3.26l3.77,11.33l3.65-11.33h3.19L61.6,97.54h-3.21L53.07,82.23z
		 M63.28,108.21h-4.01v-5.49h3.91v0.93h-2.85v1.22h2.65v0.92h-2.65v1.49h2.95V108.21z M68.27,108.21H67.2v-2.21
		c-0.22,0.1-0.43,0.18-0.64,0.23c-0.21,0.05-0.41,0.08-0.62,0.08c-0.53,0-0.97-0.13-1.32-0.39s-0.53-0.71-0.53-1.34v-1.85h1.07v1.31
		c0,0.42,0.02,0.71,0.04,0.84c0.03,0.14,0.12,0.26,0.27,0.36c0.15,0.1,0.37,0.15,0.66,0.15c0.23,0,0.43-0.03,0.61-0.08
		c0.18-0.05,0.33-0.13,0.46-0.23v-2.37h1.07V108.21z M65.41,97.54l5.8-15.31h3.18l5.96,15.31h-3.27l-1.3-3.48h-5.95l-1.23,3.48
		H65.41z M72.97,108.21l-0.46-1.25H70.4l-0.44,1.25h-1.13l2.06-5.49h1.13l2.11,5.49H72.97z M76.58,108.21h-1.07v-4.56h-1.57v-0.93
		h4.19v0.93h-1.56V108.21z M81.96,108.21l-0.46-1.25h-2.11l-0.44,1.25h-1.13l2.06-5.49h1.13l2.11,5.49H81.96z M87.14,103.66h-1.56
		v4.56h-1.07v-4.56h-1.57v-0.93h4.19V103.66z M91.98,107.54c-0.18,0.26-0.39,0.44-0.62,0.53c-0.23,0.09-0.57,0.14-1.01,0.14h-2.49
		v-5.49h1.07v2.19h1.43c0.67,0,1.16,0.16,1.46,0.49s0.45,0.72,0.45,1.17C92.25,106.96,92.16,107.28,91.98,107.54z M97.04,106.75
		h-1.99v-1.05h1.99V106.75z M97.71,84.82h-4.41v12.72H90.3V84.82h-4.42v-2.59h11.83V84.82z M99.66,82.23h6.33
		c1.59,0,2.75,0.14,3.47,0.41c0.72,0.27,1.3,0.76,1.73,1.47c0.43,0.7,0.65,1.51,0.65,2.41c0,1.15-0.33,2.1-0.99,2.85
		c-0.66,0.75-1.64,1.22-2.95,1.42c0.65,0.39,1.19,0.82,1.61,1.29c0.42,0.47,0.99,1.29,1.71,2.49l1.82,2.99h-3.6l-2.17-3.33
		c-0.77-1.19-1.3-1.94-1.58-2.25c-0.28-0.31-0.59-0.52-0.9-0.64s-0.82-0.17-1.51-0.17h-0.61v6.39h-3.01V82.23z M103.89,108.21h-1.07
		v-4.57h-2.07v4.57h-1.07v-5.49h4.2V108.21z M109.18,107.56c-0.46,0.5-1.08,0.75-1.86,0.75c-0.78,0-1.41-0.25-1.87-0.75
		c-0.46-0.5-0.69-1.18-0.69-2.06c0-0.56,0.08-1.03,0.24-1.41c0.12-0.28,0.28-0.53,0.49-0.75c0.21-0.22,0.43-0.39,0.68-0.49
		c0.33-0.14,0.71-0.22,1.14-0.22c0.78,0,1.4,0.25,1.87,0.75s0.7,1.2,0.7,2.09C109.88,106.36,109.65,107.06,109.18,107.56z
		 M114.13,105.81c-0.18,0.13-0.37,0.22-0.55,0.26c-0.25,0.05-0.62,0.08-1.1,0.08h-0.69v2.07h-1.07v-5.49h1.71
		c0.65,0,1.07,0.03,1.27,0.08c0.3,0.08,0.56,0.26,0.76,0.54c0.2,0.28,0.31,0.63,0.31,1.07c0,0.34-0.06,0.62-0.18,0.85
		S114.31,105.67,114.13,105.81z M118.58,108.21l-0.46-1.25h-2.11l-0.44,1.25h-1.13l2.06-5.49h1.13l2.11,5.49H118.58z M126.56,107.56
		c-0.46,0.5-1.08,0.75-1.86,0.75c-0.78,0-1.41-0.25-1.87-0.75c-0.46-0.5-0.69-1.18-0.69-2.06c0-0.56,0.08-1.03,0.24-1.41
		c0.12-0.28,0.28-0.53,0.49-0.75c0.21-0.22,0.43-0.39,0.68-0.49c0.33-0.14,0.71-0.22,1.14-0.22c0.78,0,1.4,0.25,1.87,0.75
		s0.7,1.2,0.7,2.09C127.25,106.36,127.02,107.06,126.56,107.56z M130.34,108.21h-1.07v-4.56h-1.57v-0.93h4.19v0.93h-1.56V108.21z
		 M136.94,109.41h-0.89v-1.2h-3.32v1.2h-0.89v-2.12h0.45c0.22-0.47,0.36-1.01,0.43-1.63c0.07-0.62,0.1-1.4,0.1-2.35v-0.58h3.65v4.57
		h0.46V109.41z M141.81,107.55c-0.19,0.27-0.4,0.45-0.62,0.53s-0.56,0.13-1.01,0.13h-2.49v-5.49h1.07v2.19h1.43
		c0.37,0,0.7,0.05,0.97,0.16s0.5,0.3,0.67,0.57c0.18,0.27,0.27,0.59,0.27,0.94C142.09,106.96,142,107.28,141.81,107.55z
		 M143.77,108.21h-1.07v-5.49h1.07V108.21z M147.96,108.21l-1.17-1.9l-1.17,1.9h-1.28l1.8-2.86l-1.63-2.62h1.25l1.06,1.76l1.04-1.76
		h1.23l-1.64,2.66l1.8,2.82H147.96z M153.39,108.21l-0.46-1.25h-2.11l-0.44,1.25h-1.13l2.06-5.49h1.13l2.11,5.49H153.39z
		 M158.57,103.66H157v4.56h-1.07v-4.56h-1.57v-0.93h4.19V103.66z M163.4,107.54c-0.18,0.26-0.39,0.44-0.62,0.53
		c-0.23,0.09-0.57,0.14-1.01,0.14h-2.49v-5.49h1.07v2.19h1.43c0.67,0,1.16,0.16,1.46,0.49s0.45,0.72,0.45,1.17
		C163.68,106.96,163.59,107.28,163.4,107.54z M165.73,108.21h-1.01v-1.05h1.01V108.21z M165.77,104.02l-0.26,2.78h-0.57l-0.26-2.78
		v-1.29h1.09V104.02z M166.46,97.54h-10.48V82.36h3.01v12.61h7.48V97.54z"/>
	<path class="st0" d="M161.42,105.84h-1.08v1.45h1.04c0.34,0,0.57-0.02,0.7-0.05c0.13-0.03,0.25-0.11,0.35-0.23s0.15-0.27,0.15-0.44
		c0-0.25-0.09-0.44-0.26-0.55C162.14,105.9,161.84,105.84,161.42,105.84z"/>
	<path class="st0" d="M29.73,105.9c-0.15-0.05-0.46-0.08-0.95-0.08h-0.86v1.47h0.99c0.38,0,0.63-0.01,0.73-0.03
		c0.16-0.03,0.29-0.1,0.39-0.22c0.1-0.12,0.15-0.27,0.15-0.47c0-0.17-0.04-0.3-0.12-0.42C29.99,106.04,29.88,105.95,29.73,105.9z"/>
	<path class="st0" d="M29.4,104.89c0.18-0.02,0.33-0.09,0.43-0.2c0.1-0.11,0.16-0.25,0.16-0.43c0-0.17-0.04-0.31-0.13-0.41
		s-0.22-0.17-0.4-0.19c-0.11-0.01-0.41-0.02-0.91-0.02h-0.61v1.27h0.7C29.04,104.91,29.3,104.9,29.4,104.89z"/>
</g>
</svg>
